<svg width="20" height="20" viewBox="0 0 20 20" fill="none" xmlns="http://www.w3.org/2000/svg">
<g id="Frame">
<g id="Group">
<path id="Vector" d="M6.20502 3.74977C6.20482 4.1476 6.04659 4.52905 5.76515 4.81021C5.4837 5.09138 5.10209 5.24922 4.70427 5.24902C4.30644 5.24882 3.92499 5.0906 3.64383 4.80915C3.36266 4.52771 3.20482 4.1461 3.20502 3.74827C3.20522 3.35045 3.36344 2.969 3.64489 2.68783C3.92633 2.40667 4.30794 2.24882 4.70577 2.24902C5.10359 2.24922 5.48504 2.40745 5.76621 2.68889C6.04737 2.97034 6.20522 3.35195 6.20502 3.74977ZM6.25002 6.35977H3.25002V15.7498H6.25002V6.35977ZM10.99 6.35977H8.00502V15.7498H10.96V10.8223C10.96 8.07727 14.5375 7.82227 14.5375 10.8223V15.7498H17.5V9.80227C17.5 5.17477 12.205 5.34727 10.96 7.61977L10.99 6.35977Z" fill="#75757F"/>
</g>
</g>
</svg>
